<svg width="24" height="26" viewBox="0 0 24 26" fill="none" xmlns="http://www.w3.org/2000/svg">
<path d="M11.9953 0.997643C18.6257 0.997643 24 6.3719 24 13.0024C24 19.6328 18.6257 25.0024 12 25.0024C5.36954 25.0024 3.11002e-06 19.6281 3.11002e-06 13.0024C-0.00471944 6.3719 5.36954 0.997643 11.9953 0.997643Z" fill="#8247E5"/>
<mask id="mask0_1_817" style="mask-type:luminance" maskUnits="userSpaceOnUse" x="4" y="6" width="16" height="14">
<path d="M19.7787 6.18775H4.04785V19.9729H19.7787V6.18775Z" fill="white"/>
</mask>
<g mask="url(#mask0_1_817)">
<path d="M15.929 10.3861C15.6409 10.2208 15.2725 10.2208 14.9467 10.3861L12.6515 11.7462L11.0931 12.6104L8.84042 13.9658C8.55235 14.1311 8.18399 14.1311 7.85813 13.9658L6.09662 12.8938C5.80855 12.7285 5.60548 12.3979 5.60548 12.0295V9.97052C5.60548 9.63994 5.77077 9.31408 6.09662 9.10629L7.85813 8.07678C8.14621 7.91149 8.51457 7.91149 8.84042 8.07678L10.6019 9.14879C10.89 9.31408 11.0931 9.64466 11.0931 10.013V11.3731L12.6515 10.4664V9.06851C12.6515 8.73793 12.4862 8.41208 12.1604 8.20428L8.88293 6.26804C8.59485 6.10275 8.22649 6.10275 7.90064 6.26804L4.5429 8.24679C4.21705 8.41208 4.05176 8.74265 4.05176 9.06851V12.9363C4.05176 13.2669 4.21705 13.5927 4.5429 13.8005L7.86285 15.7367C8.15093 15.902 8.51929 15.902 8.84515 15.7367L11.0978 14.4192L12.6562 13.5124L14.9089 12.1948C15.197 12.0295 15.5653 12.0295 15.8912 12.1948L17.6527 13.2244C17.9408 13.3896 18.1438 13.7202 18.1438 14.0886V16.1476C18.1438 16.4782 17.9786 16.804 17.6527 17.0118L15.9337 18.0414C15.6456 18.2066 15.2773 18.2066 14.9514 18.0414L13.1852 17.0118C12.8971 16.8465 12.694 16.516 12.694 16.1476V14.83L11.1356 15.7367V17.0968C11.1356 17.4274 11.3009 17.7533 11.6267 17.9611L14.9467 19.8973C15.2348 20.0626 15.6031 20.0626 15.929 19.8973L19.2489 17.9611C19.537 17.7958 19.7401 17.4652 19.7401 17.0968V13.1866C19.7401 12.856 19.5748 12.5301 19.2489 12.3223L15.929 10.3861Z" fill="white"/>
</g>
</svg>
